<svg width="34" height="34" viewBox="0 0 34 34" fill="none" xmlns="http://www.w3.org/2000/svg">
<path fill-rule="evenodd" clip-rule="evenodd" d="M16.7515 8.37058C12.0927 8.37058 8.33479 12.1258 8.33479 16.7813C8.33479 21.4369 12.0927 25.1921 16.7515 25.1921C21.4104 25.1921 25.1683 21.4369 25.1683 16.7813C25.1683 12.1258 21.4104 8.37058 16.7515 8.37058ZM16.7515 22.2494C13.7408 22.2494 11.2796 19.7972 11.2796 16.7813C11.2796 13.7655 13.7335 11.3132 16.7515 11.3132C19.7696 11.3132 22.2235 13.7655 22.2235 16.7813C22.2235 19.7972 19.7622 22.2494 16.7515 22.2494H16.7515ZM27.4758 8.02654C27.4758 9.11723 26.5967 9.98831 25.5126 9.98831C24.4211 9.98831 23.5494 9.10991 23.5494 8.02654C23.5494 6.94317 24.4284 6.06476 25.5126 6.06476C26.5967 6.06476 27.4758 6.94317 27.4758 8.02654ZM33.0503 10.0176C32.9258 7.38969 32.3251 5.06191 30.3985 3.14406C28.4793 1.2262 26.1499 0.625958 23.5201 0.494197C20.8097 0.340476 12.686 0.340476 9.97565 0.494197C7.3532 0.618638 5.02375 1.21888 3.09721 3.13674C1.17065 5.05459 0.577306 7.38237 0.445451 10.0103C0.29162 12.7187 0.29162 20.8366 0.445451 23.5451C0.569981 26.173 1.17065 28.5007 3.09721 30.4186C5.02375 32.3365 7.34587 32.9367 9.97565 33.0685C12.686 33.2222 20.8097 33.2222 23.5201 33.0685C26.1499 32.944 28.4793 32.3438 30.3986 30.4186C32.3178 28.5007 32.9184 26.173 33.0503 23.5451C33.2041 20.8366 33.2041 12.726 33.0503 10.0176H33.0503ZM29.5488 26.4511C28.9774 27.8859 27.8713 28.9912 26.4282 29.5695C24.2673 30.4259 19.1396 30.2283 16.7515 30.2283C14.3635 30.2283 9.22847 30.4186 7.07484 29.5695C5.63908 28.9985 4.53296 27.8932 3.95426 26.4511C3.0972 24.2917 3.29499 19.1677 3.29499 16.7813C3.29499 14.395 3.10453 9.26363 3.95426 7.11153C4.52564 5.6768 5.63175 4.57147 7.07484 3.99319C9.2358 3.13674 14.3635 3.33438 16.7515 3.33438C19.1396 3.33438 24.2746 3.14406 26.4282 3.99319C27.864 4.56415 28.9701 5.66948 29.5488 7.11153C30.4059 9.27095 30.2081 14.395 30.2081 16.7813C30.2081 19.1677 30.4059 24.299 29.5488 26.4511Z" fill="#909090"/>
</svg>
