<svg width="83" height="37" viewBox="0 0 83 37" fill="none" xmlns="http://www.w3.org/2000/svg">
<path d="M15.2518 37H0.837723V0.320312H6.3221V32.1016H15.2518V37ZM37.0018 33.6484C37.0018 35.8828 35.8924 37 33.6737 37H21.7674C19.5955 37 18.5096 35.8828 18.5096 33.6484V3.69531C18.5096 1.44531 19.5955 0.320312 21.7674 0.320312H33.6737C35.8924 0.320312 37.0018 1.44531 37.0018 3.69531V33.6484ZM31.5174 32.2891V5.03125H23.994V32.2891H31.5174ZM59.5721 33.6484C59.5721 35.8828 58.4549 37 56.2205 37H44.6893C42.5174 37 41.4315 35.8828 41.4315 33.6484V3.69531C41.4315 1.44531 42.5408 0.320312 44.7596 0.320312H56.2205C58.4549 0.320312 59.5721 1.44531 59.5721 3.69531V11.5234H54.0643V5.03125H46.9158V32.2891H54.0643V22.0234H49.9862V17.3594H59.5721V33.6484ZM82.4705 33.6484C82.4705 35.8828 81.3612 37 79.1424 37H67.2362C65.0643 37 63.9783 35.8828 63.9783 33.6484V3.69531C63.9783 1.44531 65.0643 0.320312 67.2362 0.320312H79.1424C81.3612 0.320312 82.4705 1.44531 82.4705 3.69531V33.6484ZM76.9862 32.2891V5.03125H69.4627V32.2891H76.9862Z" fill="#FAFAFA"/>
</svg>
