<svg width="201" height="14" viewBox="0 0 201 14" fill="none" xmlns="http://www.w3.org/2000/svg">
<path d="M6.03613 13.0225C6.03613 13.6742 5.71257 14 5.06543 14H1.59277C0.95931 14 0.642578 13.6742 0.642578 13.0225V4.28613C0.642578 3.62988 0.95931 3.30176 1.59277 3.30176H5.06543C5.71257 3.30176 6.03613 3.62988 6.03613 4.28613V13.0225ZM4.43652 12.626V4.67578H2.24219V12.626H4.43652ZM12.5781 13.0225C12.5781 13.6742 12.2523 14 11.6006 14H7.32812V3.30176H11.5732C12.2067 3.30176 12.5234 3.62988 12.5234 4.28613V7.04102C12.5234 7.4056 12.4095 7.68815 12.1816 7.88867C12.1497 7.91602 11.8717 8.09147 11.3477 8.41504C11.89 8.74772 12.1771 8.93001 12.209 8.96191C12.4551 9.17611 12.5781 9.47005 12.5781 9.84375V13.0225ZM10.9307 7.23926V4.64844H8.92773V7.78613H10.1582L10.9307 7.23926ZM10.9717 12.6533V9.60449L10.1855 9.08496H8.92773V12.6533H10.9717ZM18.4844 4.7168H16.7207V14H15.1279V4.7168H13.3643V3.30176H18.4844V4.7168ZM23.7412 14H19.3047V3.30176H23.7002V4.7168H20.9043V7.84082H23.3105V9.22852H20.9043V12.585H23.7412V14ZM23.4062 1.03223L21.417 2.83691H20.2686V2.78223L21.4443 0.970703H23.4062V1.03223ZM30.2627 14H28.8613L26.2979 7.2666C26.3662 7.59473 26.4004 7.85221 26.4004 8.03906V14H24.8418V3.30176H26.2432L28.8066 9.89844C28.7383 9.57031 28.7041 9.31283 28.7041 9.12598V3.30176H30.2627V14ZM39.8193 14H38.2061V9.20117H36.0391V14H34.4395V3.30176H36.0391V7.71094H38.2061V3.30176H39.8193V14ZM46.5186 14H44.9326L44.6113 11.9697H42.6084L42.2871 14H40.708V13.9727L42.7793 3.28809H44.4609L46.5186 14ZM44.3857 10.5957L43.6064 5.76953L42.8203 10.5957H44.3857ZM52.541 13.0225C52.541 13.6742 52.2174 14 51.5703 14H48.3506C47.708 14 47.3867 13.6742 47.3867 13.0225V10.4727H48.9863V12.6533H50.9414V10.5547L47.7354 7.51953C47.5029 7.29622 47.3867 7.01139 47.3867 6.66504V4.28613C47.3867 3.62988 47.708 3.30176 48.3506 3.30176H51.5703C52.2174 3.30176 52.541 3.62533 52.541 4.27246V6.66504H50.9414V4.64844H48.9863V6.58301L52.1924 9.60449C52.4248 9.82324 52.541 10.1126 52.541 10.4727V13.0225ZM58.4609 4.7168H56.6973V14H55.1045V4.7168H53.3408V3.30176H58.4609V4.7168ZM64.7021 14H63.1162L62.7949 11.9697H60.792L60.4707 14H58.8916V13.9727L60.9629 3.28809H62.6445L64.7021 14ZM62.5693 10.5957L61.79 5.76953L61.0039 10.5957H62.5693ZM73.6777 13.0225C73.6777 13.6742 73.3564 14 72.7139 14H69.4326C68.7992 14 68.4824 13.6742 68.4824 13.0225V10.5547H70.0547V12.626H72.1123V9.93945L70.1504 8.59277V8.25781L72.1123 6.93164V4.67578H70.0547V6.62402H68.4824V4.28613C68.4824 3.62988 68.806 3.30176 69.4531 3.30176H72.7139C73.3564 3.30176 73.6777 3.62988 73.6777 4.28613V6.80176C73.6777 7.22559 73.5 7.55371 73.1445 7.78613L72.1533 8.42871L73.1582 9.05762C73.5046 9.27181 73.6777 9.5931 73.6777 10.0215V13.0225ZM83.1387 11.9834C83.1387 12.6123 82.9518 13.1068 82.5781 13.4668C82.2044 13.8223 81.7008 14 81.0674 14H77.8066V3.30176H81.0674C81.7008 3.30176 82.2044 3.48405 82.5781 3.84863C82.9518 4.20866 83.1387 4.70312 83.1387 5.33203V11.9834ZM81.5322 11.7168V5.57129C81.5322 4.97428 81.2201 4.67578 80.5957 4.67578H79.4062V12.626H80.5547C81.2064 12.626 81.5322 12.3229 81.5322 11.7168ZM86.0098 14H84.4102V3.30176H86.0098V14ZM87.2539 1.03223L85.2646 2.83691H84.1162V2.78223L85.292 0.970703H87.2539V1.03223ZM92.7432 14H91.1572L90.8359 11.9697H88.833L88.5117 14H86.9326V13.9727L89.0039 3.28809H90.6855L92.7432 14ZM90.6104 10.5957L89.8311 5.76953L89.0449 10.5957H90.6104ZM98.7656 13.0225C98.7656 13.6742 98.4421 14 97.7949 14H94.5752C93.9326 14 93.6113 13.6742 93.6113 13.0225V10.4727H95.2109V12.6533H97.166V10.5547L93.96 7.51953C93.7275 7.29622 93.6113 7.01139 93.6113 6.66504V4.28613C93.6113 3.62988 93.9326 3.30176 94.5752 3.30176H97.7949C98.4421 3.30176 98.7656 3.62533 98.7656 4.27246V6.66504H97.166V4.64844H95.2109V6.58301L98.417 9.60449C98.6494 9.82324 98.7656 10.1126 98.7656 10.4727V13.0225ZM108.254 11.9834C108.254 12.6123 108.067 13.1068 107.693 13.4668C107.32 13.8223 106.816 14 106.183 14H102.922V3.30176H106.183C106.816 3.30176 107.32 3.48405 107.693 3.84863C108.067 4.20866 108.254 4.70312 108.254 5.33203V11.9834ZM106.647 11.7168V5.57129C106.647 4.97428 106.335 4.67578 105.711 4.67578H104.521V12.626H105.67C106.322 12.626 106.647 12.3229 106.647 11.7168ZM113.935 14H109.498V3.30176H113.894V4.7168H111.098V7.84082H113.504V9.22852H111.098V12.585H113.935V14ZM123.211 13.0225C123.211 13.6742 122.885 14 122.233 14H118.87C118.237 14 117.92 13.6742 117.92 13.0225V4.28613C117.92 3.62988 118.243 3.30176 118.891 3.30176H122.233C122.885 3.30176 123.211 3.62988 123.211 4.28613V6.56934H121.604V4.67578H119.52V12.626H121.604V9.63184H120.415V8.27148H123.211V13.0225ZM126.123 14H124.523V3.30176H126.123V14ZM133.902 14H132.364V8.72266C132.364 8.44466 132.396 8.05729 132.46 7.56055L131.079 13.0225H130.266L128.878 7.56055C128.942 8.06641 128.974 8.45378 128.974 8.72266V14H127.436V3.30176H128.946L130.628 9.21484C130.646 9.27865 130.66 9.44043 130.669 9.7002C130.669 9.58626 130.683 9.42448 130.71 9.21484L132.392 3.30176H133.902V14ZM140.608 14H139.207L136.644 7.2666C136.712 7.59473 136.746 7.85221 136.746 8.03906V14H135.188V3.30176H136.589L139.152 9.89844C139.084 9.57031 139.05 9.31283 139.05 9.12598V3.30176H140.608V14ZM147.321 14H145.735L145.414 11.9697H143.411L143.09 14H141.511V13.9727L143.582 3.28809H145.264L147.321 14ZM145.188 10.5957L144.409 5.76953L143.623 10.5957H145.188ZM153.344 13.0225C153.344 13.6742 153.02 14 152.373 14H149.153C148.511 14 148.189 13.6742 148.189 13.0225V10.4727H149.789V12.6533H151.744V10.5547L148.538 7.51953C148.306 7.29622 148.189 7.01139 148.189 6.66504V4.28613C148.189 3.62988 148.511 3.30176 149.153 3.30176H152.373C153.02 3.30176 153.344 3.62533 153.344 4.27246V6.66504H151.744V4.64844H149.789V6.58301L152.995 9.60449C153.228 9.82324 153.344 10.1126 153.344 10.4727V13.0225ZM156.242 14H154.643V3.30176H156.242V14ZM162.948 13.0225C162.948 13.6742 162.625 14 161.978 14H158.505C157.871 14 157.555 13.6742 157.555 13.0225V4.28613C157.555 3.62988 157.871 3.30176 158.505 3.30176H161.978C162.625 3.30176 162.948 3.62988 162.948 4.28613V13.0225ZM161.349 12.626V4.67578H159.154V12.626H161.349ZM172.416 13.0225C172.416 13.6742 172.09 14 171.438 14H168.075C167.442 14 167.125 13.6742 167.125 13.0225V4.28613C167.125 3.62988 167.449 3.30176 168.096 3.30176H171.438C172.09 3.30176 172.416 3.62988 172.416 4.28613V6.56934H170.81V4.67578H168.725V12.626H170.81V9.63184H169.62V8.27148H172.416V13.0225ZM179.177 14H177.509L175.745 9.03027C175.745 9.03027 175.745 8.70898 175.745 8.06641H177.317V4.67578H175.301V14H173.701V3.30176H177.946C178.589 3.30176 178.91 3.62988 178.91 4.28613V8.17578C178.91 8.62695 178.757 8.91862 178.452 9.05078C178.288 9.11914 177.942 9.15332 177.413 9.15332L179.177 14ZM185.575 14H183.989L183.668 11.9697H181.665L181.344 14H179.765V13.9727L181.836 3.28809H183.518L185.575 14ZM183.442 10.5957L182.663 5.76953L181.877 10.5957H183.442ZM191.119 4.7168H189.355V14H187.763V4.7168H185.999V3.30176H191.119V4.7168ZM193.566 14H191.967V3.30176H193.566V14ZM200.006 13.0225C200.006 13.6742 199.682 14 199.035 14H195.815C195.173 14 194.852 13.6742 194.852 13.0225V10.4727H196.451V12.6533H198.406V10.5547L195.2 7.51953C194.968 7.29622 194.852 7.01139 194.852 6.66504V4.28613C194.852 3.62988 195.173 3.30176 195.815 3.30176H199.035C199.682 3.30176 200.006 3.62533 200.006 4.27246V6.66504H198.406V4.64844H196.451V6.58301L199.657 9.60449C199.89 9.82324 200.006 10.1126 200.006 10.4727V13.0225Z" fill="white"/>
</svg>
