<svg width="39" height="32" viewBox="0 0 39 32" fill="none" xmlns="http://www.w3.org/2000/svg">
<path d="M34.5887 8.34413C34.6125 8.67704 34.6125 9.01003 34.6125 9.34295C34.6125 19.4973 26.8836 31.1976 12.7575 31.1976C8.40546 31.1976 4.36266 29.9371 0.961914 27.7494C1.58025 27.8207 2.17473 27.8445 2.81685 27.8445C6.40778 27.8445 9.71344 26.6317 12.3532 24.5627C8.97622 24.4914 6.14623 22.2798 5.17118 19.2358C5.64684 19.3071 6.12244 19.3547 6.6219 19.3547C7.31153 19.3547 8.00124 19.2595 8.6433 19.0931C5.12367 18.3796 2.48386 15.2882 2.48386 11.5546V11.4595C3.50642 12.0302 4.69558 12.3869 5.9559 12.4344C3.88692 11.0551 2.53144 8.70083 2.53144 6.03736C2.53144 4.61053 2.91187 3.30258 3.57779 2.16109C7.35904 6.82214 13.0428 9.86604 19.4161 10.199C19.2973 9.62829 19.2259 9.03382 19.2259 8.43929C19.2259 4.20624 22.6504 0.758057 26.9073 0.758057C29.1189 0.758057 31.1165 1.68551 32.5197 3.1837C34.2557 2.85079 35.9204 2.20867 37.3949 1.3288C36.824 3.11241 35.6112 4.6106 34.0179 5.56177C35.5637 5.39539 37.0619 4.96724 38.4412 4.37278C37.395 5.89469 36.087 7.25014 34.5887 8.34413V8.34413Z" fill="#909090"/>
</svg>
