<svg width="41" height="29" viewBox="0 0 41 29" fill="none" xmlns="http://www.w3.org/2000/svg">
<path fill-rule="evenodd" clip-rule="evenodd" d="M39.4336 4.53605C38.9735 2.80486 37.6179 1.44142 35.8967 0.978722C32.7768 0.137939 20.2666 0.137939 20.2666 0.137939C20.2666 0.137939 7.75649 0.137939 4.63658 0.978722C2.91535 1.4415 1.55973 2.80486 1.09963 4.53605C0.263672 7.67394 0.263672 14.2209 0.263672 14.2209C0.263672 14.2209 0.263672 20.7678 1.09963 23.9057C1.55973 25.6369 2.91535 26.9435 4.63658 27.4062C7.75649 28.247 20.2666 28.247 20.2666 28.247C20.2666 28.247 32.7767 28.247 35.8967 27.4062C37.6179 26.9435 38.9735 25.6369 39.4336 23.9057C40.2696 20.7678 40.2696 14.2209 40.2696 14.2209C40.2696 14.2209 40.2696 7.67394 39.4336 4.53605V4.53605ZM16.1751 20.165V8.27675L26.6311 14.221L16.1751 20.165V20.165Z" fill="#909090"/>
</svg>
